<svg xmlns="http://www.w3.org/2000/svg" viewBox="0 0 400.69 54.18"><defs><style>.cls-1{fill:#fff;}.cls-2{fill:#ff4e00;}</style></defs><title>Logo</title><g id="Layer_2" data-name="Layer 2"><g id="Layer_1-2" data-name="Layer 1"><path class="cls-1" d="M28.91,41a16.25,16.25,0,0,1-12.15,5C7.61,45.94,0,40.44,0,29.24S7.61,12.55,16.76,12.55a15,15,0,0,1,11.38,4.67L23.22,22.4a9.61,9.61,0,0,0-6.34-2.49c-5.24,0-9.08,3.83-9.08,9.33,0,6,4.1,9.21,9,9.21a9.46,9.46,0,0,0,6.9-2.62Z"/><path class="cls-1" d="M38.3,13.45l.57,3.64c2.43-3.9,5.7-4.47,8.89-4.47a12,12,0,0,1,8.13,3L52.37,22.4a7.81,7.81,0,0,0-5.63-2c-4.09,0-7.87,2.18-7.87,8V45h-7.8V13.45Z"/><path class="cls-1" d="M64.19,32c.51,3.9,3.9,6.72,9.4,6.72,2.88,0,6.65-1.09,8.44-2.94l5,4.92c-3.32,3.46-8.76,5.12-13.56,5.12-10.87,0-17.33-6.72-17.33-16.82,0-9.6,6.53-16.5,16.76-16.5C83.44,12.49,90,19,88.81,32Zm17.14-6.45c-.51-4.1-3.71-6.15-8.19-6.15-4.22,0-7.67,2.05-8.82,6.15Z"/><path class="cls-1" d="M118.54,13.45H126V45h-7.35l-.38-4.61c-1.8,3.71-6.72,5.5-10.24,5.57-9.33.06-16.24-5.7-16.24-16.76,0-10.87,7.22-16.56,16.43-16.5,4.23,0,8.25,2,10.05,5.12ZM99.61,29.18c0,6,4.16,9.59,9.34,9.59,12.28,0,12.28-19.12,0-19.12-5.18,0-9.34,3.52-9.34,9.53"/><path class="cls-1" d="M141,4.56v9h8.7v6.72h-8.77V33.85c0,3,1.67,4.47,4.1,4.47a8.85,8.85,0,0,0,3.77-1L151,44a17.49,17.49,0,0,1-6.46,1.34c-6.85.26-11.32-3.65-11.32-11.51V20.23h-5.89V13.51h5.89V5.39Z"/><path class="cls-1" d="M162.72,4.56c0,6.07-9.21,6.07-9.21,0s9.21-6.08,9.21,0M154.21,45H162V13.32h-7.8Z"/><polygon class="cls-1" points="200.44 13.38 187.01 45.1 178.57 45.1 165.08 13.38 173.58 13.38 177.93 23.81 182.79 37.11 187.59 23.94 191.94 13.38 200.44 13.38"/><path class="cls-1" d="M209.58,32c.51,3.9,3.9,6.72,9.4,6.72,2.88,0,6.65-1.09,8.44-2.94l5,4.92c-3.33,3.46-8.76,5.12-13.56,5.12-10.87,0-17.33-6.72-17.33-16.82,0-9.6,6.52-16.5,16.76-16.5,10.55,0,17.14,6.52,15.92,19.5Zm17.14-6.45c-.51-4.1-3.71-6.15-8.19-6.15-4.22,0-7.67,2.05-8.82,6.15Z"/><path class="cls-1" d="M301.32,32c.51,3.9,3.9,6.72,9.4,6.72,2.88,0,6.66-1.09,8.45-2.94l5,4.92c-3.32,3.46-8.76,5.12-13.55,5.12-10.87,0-17.33-6.72-17.33-16.82,0-9.6,6.52-16.5,16.75-16.5,10.55,0,17.14,6.52,15.92,19.5Zm17.14-6.45c-.51-4.1-3.71-6.15-8.18-6.15-4.22,0-7.68,2.05-8.83,6.15Z"/><path class="cls-1" d="M338.47.27V17.73c1.85-3.26,7-5.05,10.36-5.05,9.21,0,16.05,5.63,16.05,16.5,0,10.36-7,16.5-16.24,16.5-3.84,0-7.74-1.28-10.17-5L338,45h-7.29V.27ZM339,29.18a8.94,8.94,0,0,0,9.15,9.27c5,0,8.95-3.77,8.95-9.27,0-5.69-4-9.21-8.95-9.21A9,9,0,0,0,339,29.18"/><path class="cls-1" d="M400.69,29.24c0,9.08-6.21,16.44-16.44,16.44s-16.37-7.36-16.37-16.44,6.27-16.43,16.31-16.43,16.5,7.42,16.5,16.43m-25,0c0,4.8,2.88,9.28,8.57,9.28s8.57-4.48,8.57-9.28-3.33-9.33-8.57-9.33c-5.63,0-8.57,4.6-8.57,9.33"/><polygon class="cls-1" points="266.04 35.77 267.57 40.16 271.73 30.96 266.62 13.38 259.77 13.38 252.93 37.11 245.7 13.38 237 13.38 248.07 45.1 257.15 45.1 260.41 35.77 263.23 25.21 266.04 35.77"/><polygon class="cls-2" points="287.05 4.88 264.75 54.19 274.36 54.19 296.65 4.88 296.64 4.88 287.05 4.88"/></g></g></svg>